<svg width="118" height="37" viewBox="0 0 118 37" fill="none" xmlns="http://www.w3.org/2000/svg">
<path d="M19.9144 12.1479V0H16.5572V12.1479L10.5738 1.62281L7.67342 3.33834L13.6568 13.8634L3.28861 7.78948L1.62145 10.7337L11.9669 16.8076H0V20.2155H11.9669L1.62145 26.2895L3.28861 29.2337L13.6568 23.1598L7.67342 33.6849L10.5738 35.3772L16.5572 24.8521V37H19.9144V24.8521" fill="white"/>
<path d="M16.5572 12.1479V0H19.9144V12.1479L25.8978 1.64599L28.7981 3.33834L22.8147 13.8634L33.183 7.78948L34.8501 10.7337L24.4819 16.8076H36.4487V20.2155H24.4819L34.8501 26.2895L33.183 29.2337L22.8147 23.1598L28.7981 33.6849L25.8978 35.3772L19.9144 24.8521V37H16.5572V24.8521" fill="white"/>
<path d="M48.5414 9.75924V11.8316H53.917H58.5375C59.0052 11.8316 59.4451 12.0538 59.7226 12.4302C60.1155 12.9572 60.2783 13.6125 60.298 14.2695C60.3373 15.5789 60.4014 18.0251 60.4243 20.6965L60.4809 27.8921L62.5519 27.9267L64.6116 27.9497V23.2064C64.6003 17.588 64.4531 13.3398 64.2268 12.2806C64.0118 11.2674 63.6949 10.6572 62.9819 9.89739C61.5312 8.29651 59.1892 7.91906 57.0313 7.81503C55.8202 7.75664 54.3394 7.70709 52.706 7.69842L48.5414 7.6869V9.75924Z" fill="white"/>
<path d="M70.9628 14.5485C70.9628 18.3478 70.9628 22.753 70.9628 22.753V27.9628C70.9628 27.9628 72.3321 27.9398 73.3733 27.9628L75.1501 27.9727L80.503 27.9151C86.3313 27.8575 86.8745 27.8 87.927 27.1898C88.6739 26.7408 89.7717 25.624 90.1338 24.9563C90.677 23.9546 90.7676 23.0681 90.8468 18.7393C90.926 13.6275 90.8242 12.3496 90.247 11.1522C89.4322 9.47134 87.7346 8.14734 86.105 7.90557C85.7089 7.84801 82.144 7.76742 78.183 7.73288L70.9628 7.65229V14.5485ZM84.2829 11.9351C84.2829 11.9351 85.4991 11.9351 86.124 12.4398C86.8566 13.0315 86.8632 14.0894 86.8632 15.0311V17.8182C86.8632 22.3543 86.8406 22.5961 86.2634 23.1372C85.641 23.7244 85.5278 23.7359 80.1069 23.7819L75.0369 23.8165V17.8988C75.0369 14.6522 75.0369 11.9351 75.0369 11.9351C75.1388 11.82 84.2829 11.9351 84.2829 11.9351Z" fill="white"/>
<path d="M103.206 7.80203C101.486 7.89414 100.445 8.10137 99.5959 8.52735C98.8829 8.88425 97.8983 9.89739 97.3438 10.853C96.5063 12.2921 96.7033 12.4418 96.692 18.5666L96.6921 27.9497H98.5158H100.377H108.355H116.334V25.8774V23.805H108.48H100.637L100.58 19.4531C100.558 17.07 100.569 14.7443 100.603 14.2953C100.762 12.6144 101.293 12.1424 103.263 11.9467C103.885 11.8891 107.076 11.8316 110.37 11.8316H116.334V9.75924V7.6869L110.596 7.70993C107.427 7.70993 104.111 7.75598 103.206 7.80203Z" fill="white"/>
<path d="M45.0249 7.6885H44.6936V19.9597V27.9497H45.2934C45.6329 27.9497 46.527 27.9152 47.2739 27.8691L48.6546 27.8V19.9482V7.6885H48.2168H45.0249Z" fill="white"/>
</svg>
